<?xml version="1.0" standalone="no"?>
<!DOCTYPE svg PUBLIC "-//W3C//DTD SVG 20010904//EN"
 "http://www.w3.org/TR/2001/REC-SVG-20010904/DTD/svg10.dtd">
<svg version="1.0" xmlns="http://www.w3.org/2000/svg"
 width="700.000000pt" height="700.000000pt" viewBox="0 0 700.000000 700.000000"
 preserveAspectRatio="xMidYMid meet">
<metadata>
Created by potrace 1.11, written by Peter Selinger 2001-2013
</metadata>
<g transform="translate(0.000000,700.000000) scale(0.100000,-0.100000)"
fill="#000000" stroke="none">
<path d="M3269 6996 c-2 -2 -41 -6 -87 -10 -334 -24 -751 -130 -1082 -276
-953 -420 -1683 -1252 -1965 -2243 -52 -182 -81 -322 -112 -547 -18 -136 -25
-567 -10 -734 58 -687 338 -1367 786 -1911 72 -88 70 -86 187 -206 319 -330
693 -592 1084 -763 47 -21 94 -41 105 -46 205 -91 597 -198 824 -225 30 -4 63
-9 75 -11 138 -27 667 -25 856 2 452 66 778 166 1153 356 139 70 319 176 325
190 2 4 8 8 13 8 12 0 159 106 285 205 116 93 380 354 480 475 322 390 539
801 679 1280 36 127 89 375 100 475 4 33 9 69 11 80 30 152 24 698 -11 900 -2
17 -7 48 -10 70 -8 53 -64 313 -74 345 -5 14 -17 52 -26 85 -57 202 -197 536
-293 700 -99 170 -305 475 -341 505 -3 3 -38 43 -78 90 -125 148 -367 377
-508 481 -33 24 -62 46 -65 50 -3 3 -27 20 -55 39 -27 19 -52 36 -55 39 -6 7
-15 13 -175 109 -132 79 -307 168 -425 216 -36 15 -74 31 -85 35 -63 26 -88
36 -170 62 -167 55 -406 113 -550 135 -27 4 -52 8 -55 9 -3 1 -41 5 -85 10
-44 4 -89 10 -100 12 -29 5 -541 14 -546 9z"/>
</g>
</svg>
